<mxfile host="app.diagrams.net" agent="Mozilla/5.0 (Macintosh; Intel Mac OS X 10_15_7) AppleWebKit/605.1.15 (KHTML, like Gecko) Version/18.0 Safari/605.1.15" version="24.7.17">
  <diagram name="Pagina-1" id="_gTNNlwFQ1XhTertrmhU">
    <mxGraphModel grid="1" page="1" gridSize="10" guides="1" tooltips="1" connect="1" arrows="1" fold="1" pageScale="1" pageWidth="827" pageHeight="1169" math="0" shadow="0">
      <root>
        <mxCell id="0" />
        <mxCell id="1" parent="0" />
        <mxCell id="k0YfigKtuebDxeh3nbb2-1" value="&lt;b style=&quot;font-size: 18px;&quot;&gt;ESERCIZIO 6: &lt;/b&gt;&amp;nbsp;Creare un diagramma di flusso che prenda in input una&lt;br&gt;&lt;div&gt;variabile X. Il diagramma di flusso deve stampare tutti i valori che siano divisibili&lt;/div&gt;&lt;div&gt;per 3 e divisibili per 5 (contemporaneamente)&amp;nbsp;&lt;/div&gt;&lt;div&gt;tra 1 e X, compreso.&lt;/div&gt;&lt;div&gt;Esempio: Se X = 15, il programma deve stampare (dare in output) : &amp;nbsp;15.&lt;/div&gt;&lt;div&gt;In quanto solamente il numero 15 Ã¨ divisibile per 3 e per 5 nello stesso momento.&lt;/div&gt;&lt;div&gt;Altro Esempio: se X = 30, il programma deve stampare (dara in output) : 15 e 30 .&lt;/div&gt;" style="text;html=1;align=center;verticalAlign=middle;resizable=0;points=[];autosize=1;strokeColor=none;fillColor=none;fontSize=18;" vertex="1" parent="1">
          <mxGeometry x="79" y="30" width="670" height="160" as="geometry" />
        </mxCell>
        <mxCell id="czXiDxwi8xgy1AT_5fZq-29" value="" style="edgeStyle=orthogonalEdgeStyle;rounded=0;orthogonalLoop=1;jettySize=auto;html=1;" edge="1" parent="1" source="czXiDxwi8xgy1AT_5fZq-30" target="czXiDxwi8xgy1AT_5fZq-32">
          <mxGeometry relative="1" as="geometry" />
        </mxCell>
        <mxCell id="czXiDxwi8xgy1AT_5fZq-30" value="" style="ellipse;whiteSpace=wrap;html=1;aspect=fixed;" vertex="1" parent="1">
          <mxGeometry x="320" y="200" width="80" height="80" as="geometry" />
        </mxCell>
        <mxCell id="czXiDxwi8xgy1AT_5fZq-31" value="" style="edgeStyle=orthogonalEdgeStyle;rounded=0;orthogonalLoop=1;jettySize=auto;html=1;" edge="1" parent="1" source="czXiDxwi8xgy1AT_5fZq-32" target="czXiDxwi8xgy1AT_5fZq-34">
          <mxGeometry relative="1" as="geometry" />
        </mxCell>
        <mxCell id="czXiDxwi8xgy1AT_5fZq-32" value="&lt;font style=&quot;font-size: 16px;&quot;&gt;X, i = 1&lt;/font&gt;" style="shape=hexagon;perimeter=hexagonPerimeter2;whiteSpace=wrap;html=1;fixedSize=1;" vertex="1" parent="1">
          <mxGeometry x="300" y="310" width="120" height="80" as="geometry" />
        </mxCell>
        <mxCell id="czXiDxwi8xgy1AT_5fZq-33" value="" style="edgeStyle=orthogonalEdgeStyle;rounded=0;orthogonalLoop=1;jettySize=auto;html=1;" edge="1" parent="1" source="czXiDxwi8xgy1AT_5fZq-34" target="czXiDxwi8xgy1AT_5fZq-36">
          <mxGeometry relative="1" as="geometry" />
        </mxCell>
        <mxCell id="czXiDxwi8xgy1AT_5fZq-34" value="&lt;font size=&quot;3&quot;&gt;X&lt;/font&gt;" style="shape=parallelogram;perimeter=parallelogramPerimeter;whiteSpace=wrap;html=1;fixedSize=1;fillColor=#d5e8d4;strokeColor=#82b366;" vertex="1" parent="1">
          <mxGeometry x="300" y="430" width="120" height="60" as="geometry" />
        </mxCell>
        <mxCell id="czXiDxwi8xgy1AT_5fZq-35" value="" style="edgeStyle=orthogonalEdgeStyle;rounded=0;orthogonalLoop=1;jettySize=auto;html=1;" edge="1" parent="1" source="czXiDxwi8xgy1AT_5fZq-36" target="czXiDxwi8xgy1AT_5fZq-39">
          <mxGeometry relative="1" as="geometry" />
        </mxCell>
        <mxCell id="czXiDxwi8xgy1AT_5fZq-36" value="" style="ellipse;whiteSpace=wrap;html=1;" vertex="1" parent="1">
          <mxGeometry x="340" y="520" width="40" height="40" as="geometry" />
        </mxCell>
        <mxCell id="czXiDxwi8xgy1AT_5fZq-37" value="" style="edgeStyle=orthogonalEdgeStyle;rounded=0;orthogonalLoop=1;jettySize=auto;html=1;" edge="1" parent="1" source="czXiDxwi8xgy1AT_5fZq-39" target="czXiDxwi8xgy1AT_5fZq-46">
          <mxGeometry relative="1" as="geometry">
            <Array as="points">
              <mxPoint x="190" y="635" />
            </Array>
          </mxGeometry>
        </mxCell>
        <mxCell id="czXiDxwi8xgy1AT_5fZq-38" style="edgeStyle=orthogonalEdgeStyle;rounded=0;orthogonalLoop=1;jettySize=auto;html=1;entryX=0.5;entryY=0;entryDx=0;entryDy=0;" edge="1" parent="1" source="czXiDxwi8xgy1AT_5fZq-39" target="czXiDxwi8xgy1AT_5fZq-49">
          <mxGeometry relative="1" as="geometry" />
        </mxCell>
        <mxCell id="czXiDxwi8xgy1AT_5fZq-39" value="i &amp;lt;= X" style="rhombus;whiteSpace=wrap;html=1;fontSize=16;" vertex="1" parent="1">
          <mxGeometry x="320" y="595" width="80" height="80" as="geometry" />
        </mxCell>
        <mxCell id="czXiDxwi8xgy1AT_5fZq-40" value="" style="edgeStyle=orthogonalEdgeStyle;rounded=0;orthogonalLoop=1;jettySize=auto;html=1;" edge="1" parent="1" source="czXiDxwi8xgy1AT_5fZq-41" target="czXiDxwi8xgy1AT_5fZq-45">
          <mxGeometry relative="1" as="geometry" />
        </mxCell>
        <mxCell id="czXiDxwi8xgy1AT_5fZq-41" value="i" style="shape=parallelogram;perimeter=parallelogramPerimeter;whiteSpace=wrap;html=1;fixedSize=1;fontSize=16;fillColor=#f8cecc;strokeColor=#b85450;" vertex="1" parent="1">
          <mxGeometry x="600" y="750" width="120" height="60" as="geometry" />
        </mxCell>
        <mxCell id="czXiDxwi8xgy1AT_5fZq-42" value="V" style="text;html=1;align=center;verticalAlign=middle;resizable=0;points=[];autosize=1;strokeColor=none;fillColor=none;" vertex="1" parent="1">
          <mxGeometry x="510" y="610" width="30" height="30" as="geometry" />
        </mxCell>
        <mxCell id="czXiDxwi8xgy1AT_5fZq-43" value="i" style="text;html=1;align=center;verticalAlign=middle;resizable=0;points=[];autosize=1;strokeColor=none;fillColor=none;" vertex="1" parent="1">
          <mxGeometry x="395" y="408" width="30" height="30" as="geometry" />
        </mxCell>
        <mxCell id="czXiDxwi8xgy1AT_5fZq-44" style="edgeStyle=orthogonalEdgeStyle;rounded=0;orthogonalLoop=1;jettySize=auto;html=1;entryX=1;entryY=0.5;entryDx=0;entryDy=0;" edge="1" parent="1" source="czXiDxwi8xgy1AT_5fZq-45" target="czXiDxwi8xgy1AT_5fZq-56">
          <mxGeometry relative="1" as="geometry">
            <Array as="points">
              <mxPoint x="660" y="950" />
            </Array>
          </mxGeometry>
        </mxCell>
        <mxCell id="czXiDxwi8xgy1AT_5fZq-45" value="i = i + 1" style="whiteSpace=wrap;html=1;fontSize=16;" vertex="1" parent="1">
          <mxGeometry x="600" y="840" width="120" height="60" as="geometry" />
        </mxCell>
        <mxCell id="czXiDxwi8xgy1AT_5fZq-46" value="" style="ellipse;whiteSpace=wrap;html=1;fontSize=16;fillColor=#000000;" vertex="1" parent="1">
          <mxGeometry x="150" y="670" width="80" height="80" as="geometry" />
        </mxCell>
        <mxCell id="czXiDxwi8xgy1AT_5fZq-47" value="F" style="text;html=1;align=center;verticalAlign=middle;resizable=0;points=[];autosize=1;strokeColor=none;fillColor=none;" vertex="1" parent="1">
          <mxGeometry x="190" y="610" width="30" height="30" as="geometry" />
        </mxCell>
        <mxCell id="czXiDxwi8xgy1AT_5fZq-48" style="edgeStyle=orthogonalEdgeStyle;rounded=0;orthogonalLoop=1;jettySize=auto;html=1;" edge="1" parent="1" source="czXiDxwi8xgy1AT_5fZq-49" target="czXiDxwi8xgy1AT_5fZq-54">
          <mxGeometry relative="1" as="geometry">
            <Array as="points">
              <mxPoint x="430" y="704" />
            </Array>
          </mxGeometry>
        </mxCell>
        <mxCell id="czXiDxwi8xgy1AT_5fZq-49" value="i % 3 == 0&lt;div&gt;&amp;amp;&amp;amp;&amp;nbsp;&lt;/div&gt;&lt;div&gt;i % 5 == 0&lt;/div&gt;" style="rhombus;whiteSpace=wrap;html=1;fontSize=16;" vertex="1" parent="1">
          <mxGeometry x="480" y="658" width="130" height="112" as="geometry" />
        </mxCell>
        <mxCell id="czXiDxwi8xgy1AT_5fZq-50" style="edgeStyle=orthogonalEdgeStyle;rounded=0;orthogonalLoop=1;jettySize=auto;html=1;entryX=0.604;entryY=-0.006;entryDx=0;entryDy=0;entryPerimeter=0;" edge="1" parent="1" source="czXiDxwi8xgy1AT_5fZq-49" target="czXiDxwi8xgy1AT_5fZq-41">
          <mxGeometry relative="1" as="geometry">
            <Array as="points">
              <mxPoint x="673" y="714" />
            </Array>
          </mxGeometry>
        </mxCell>
        <mxCell id="czXiDxwi8xgy1AT_5fZq-51" value="V" style="text;html=1;align=center;verticalAlign=middle;resizable=0;points=[];autosize=1;strokeColor=none;fillColor=none;" vertex="1" parent="1">
          <mxGeometry x="645" y="675" width="30" height="30" as="geometry" />
        </mxCell>
        <mxCell id="czXiDxwi8xgy1AT_5fZq-52" value="Caso condizione VERA" style="text;html=1;align=center;verticalAlign=middle;resizable=0;points=[];autosize=1;strokeColor=none;fillColor=none;fontStyle=1" vertex="1" parent="1">
          <mxGeometry x="575" y="658" width="150" height="30" as="geometry" />
        </mxCell>
        <mxCell id="czXiDxwi8xgy1AT_5fZq-53" style="edgeStyle=orthogonalEdgeStyle;rounded=0;orthogonalLoop=1;jettySize=auto;html=1;entryX=0;entryY=0.5;entryDx=0;entryDy=0;" edge="1" parent="1" source="czXiDxwi8xgy1AT_5fZq-54" target="czXiDxwi8xgy1AT_5fZq-56">
          <mxGeometry relative="1" as="geometry">
            <Array as="points">
              <mxPoint x="430" y="950" />
            </Array>
          </mxGeometry>
        </mxCell>
        <mxCell id="czXiDxwi8xgy1AT_5fZq-54" value="i = i + 1" style="whiteSpace=wrap;html=1;fontSize=16;" vertex="1" parent="1">
          <mxGeometry x="370" y="780" width="120" height="60" as="geometry" />
        </mxCell>
        <mxCell id="czXiDxwi8xgy1AT_5fZq-55" style="edgeStyle=orthogonalEdgeStyle;rounded=0;orthogonalLoop=1;jettySize=auto;html=1;entryX=1;entryY=0.5;entryDx=0;entryDy=0;" edge="1" parent="1" source="czXiDxwi8xgy1AT_5fZq-56" target="czXiDxwi8xgy1AT_5fZq-36">
          <mxGeometry relative="1" as="geometry">
            <Array as="points">
              <mxPoint x="540" y="990" />
              <mxPoint x="740" y="990" />
              <mxPoint x="740" y="540" />
            </Array>
          </mxGeometry>
        </mxCell>
        <mxCell id="czXiDxwi8xgy1AT_5fZq-56" value="" style="ellipse;whiteSpace=wrap;html=1;" vertex="1" parent="1">
          <mxGeometry x="520" y="930" width="40" height="40" as="geometry" />
        </mxCell>
        <mxCell id="czXiDxwi8xgy1AT_5fZq-57" value="Caso condizione FALSE" style="text;html=1;align=center;verticalAlign=middle;resizable=0;points=[];autosize=1;strokeColor=none;fillColor=none;fontStyle=1" vertex="1" parent="1">
          <mxGeometry x="360" y="658" width="150" height="30" as="geometry" />
        </mxCell>
        <mxCell id="czXiDxwi8xgy1AT_5fZq-58" value="F" style="text;html=1;align=center;verticalAlign=middle;resizable=0;points=[];autosize=1;strokeColor=none;fillColor=none;" vertex="1" parent="1">
          <mxGeometry x="425" y="675" width="30" height="30" as="geometry" />
        </mxCell>
        <mxCell id="czXiDxwi8xgy1AT_5fZq-59" value="Condizione con l&#39;AND (&amp;amp;&amp;amp;) in quanto&lt;div&gt;voglio che entrambe le condizioni siano verificate&lt;/div&gt;&lt;div&gt;nello stesso momento, in contemporanea&lt;/div&gt;" style="text;html=1;align=center;verticalAlign=middle;resizable=0;points=[];autosize=1;strokeColor=none;fillColor=none;" vertex="1" parent="1">
          <mxGeometry x="405" y="560" width="280" height="60" as="geometry" />
        </mxCell>
      </root>
    </mxGraphModel>
  </diagram>
</mxfile>
